<?xml version="1.0" encoding="UTF-8"?>
<!DOCTYPE svg PUBLIC "-//W3C//DTD SVG 1.1//EN" "http://www.w3.org/Graphics/SVG/1.1/DTD/svg11.dtd">
<svg xmlns="http://www.w3.org/2000/svg" xmlns:xlink="http://www.w3.org/1999/xlink">
    <symbol id="apple" viewBox="0 0 20 20">
        <path fill="currentColor" d="M1419.96094,320.34375v0.58594v0.97656c0,0.86157 -0.70094,1.5625 -1.5625,1.5625h-0.97656c-0.86157,0 -1.5625,-0.70093 -1.5625,-1.5625c0,-0.86156 0.70093,-1.5625 1.5625,-1.5625h1.36718v-5.74972l-5.625,0.96984v5.95176v0.58594v0.97656c0,0.86156 -0.70093,1.5625 -1.5625,1.5625h-0.97656c-0.86156,0 -1.5625,-0.70094 -1.5625,-1.5625c0,-0.86156 0.70094,-1.5625 1.5625,-1.5625h1.36719v-8.89199l7.96875,-1.37391zM1420.89844,308h-11.79688c-2.2616,0 -4.10156,1.83996 -4.10156,4.10156v11.79688c0,2.2616 1.83996,4.10156 4.10156,4.10156h11.79688c2.2616,0 4.10156,-1.83996 4.10156,-4.10156v-11.79688c0,-2.2616 -1.83996,-4.10156 -4.10156,-4.10156z" transform="matrix(1,0,0,1,-1405,-308)"/>
    </symbol>
    <symbol id="instagram" viewBox="0 0 20 20">
        <path fill="currentColor" d="M1423,349.5c0,0.3 -0.2,0.5 -0.5,0.5h-2c-0.3,0 -0.5,-0.2 -0.5,-0.5v-2c0,-0.3 0.2,-0.5 0.5,-0.5h2c0.3,0 0.5,0.2 0.5,0.5zM1407.5,363c-0.3,0 -0.5,-0.2 -0.5,-0.5v-8.5h2.1c-0.1,0.3 -0.1,0.7 -0.1,1c0,3.3 2.7,6 6,6c3.3,0 6,-2.7 6,-6c0,-0.3 0,-0.7 -0.1,-1h2.1v8.5c0,0.3 -0.2,0.5 -0.5,0.5zM1415,351c2.2,0 4,1.8 4,4c0,2.2 -1.8,4 -4,4c-2.2,0 -4,-1.8 -4,-4c0,-2.2 1.8,-4 4,-4zM1423,345h-16c-1.1,0 -2,0.9 -2,2v16c0,1.1 0.9,2 2,2h16c1.1,0 2,-0.9 2,-2v-16c0,-1.1 -0.9,-2 -2,-2z" transform="matrix(1,0,0,1,-1405,-345)"/>
    </symbol>
    <symbol id="facebook" viewBox="0 0 20 20">
        <path fill="currentColor" d="M1422,382v3h-2c-0.6,0 -1,0.4 -1,1v2h3v3h-3v7h-3v-7h-2v-3h2v-2.5c0,-1.9 1.6,-3.5 3.5,-3.5zM1423,380h-16c-1.1,0 -2,0.9 -2,2v16c0,1.1 0.9,2 2,2h16c1.1,0 2,-0.9 2,-2v-16c0,-1.1 -0.9,-2 -2,-2z" transform="matrix(1,0,0,1,-1405,-380)"/>
    </symbol>
    <symbol id="vk" viewBox="0 0 20 20">
        <path fill="currentColor" transform="matrix(1,0,0,1,-1405,-415)" d="M1420.92957,426.26446c0.54511,0.53192 1.12149,1.03277 1.61107,1.62064c0.21659,0.25958 0.42085,0.52766 0.57638,0.82958c0.22149,0.43064 0.02149,0.90361 -0.36447,0.92893l-2.39489,-0.00064c-0.6183,0.05086 -1.11064,-0.19808 -1.52596,-0.62085c-0.33085,-0.33723 -0.63851,-0.69723 -0.95745,-1.04553c-0.13,-0.14319 -0.26787,-0.27787 -0.43085,-0.38425c-0.32638,-0.21192 -0.61,-0.14724 -0.79744,0.1934c-0.19064,0.34681 -0.23469,0.73149 -0.25213,1.11809c-0.0266,0.56489 -0.19681,0.71234 -0.76341,0.73851c-1.21064,0.05702 -2.35978,-0.12681 -3.42723,-0.73681c-0.94234,-0.5383 -1.67106,-1.29873 -2.30596,-2.15873c-1.23745,-1.67723 -2.1851,-3.51829 -3.03617,-5.41212c-0.1917,-0.4266 -0.05149,-0.6549 0.41851,-0.66362c0.78213,-0.01553 1.56404,-0.0134 2.34511,-0.00085c0.3183,0.00489 0.52872,0.18702 0.65064,0.48702c0.42234,1.03936 0.94064,2.0283 1.58957,2.94532c0.17298,0.24404 0.34958,0.48766 0.60064,0.66021c0.27745,0.19064 0.48894,0.12787 0.61979,-0.1817c0.08361,-0.19745 0.11978,-0.40723 0.13766,-0.6183c0.06212,-0.72255 0.06957,-1.4451 -0.03766,-2.16489c-0.06702,-0.45021 -0.32064,-0.74107 -0.76958,-0.82617c-0.22851,-0.04341 -0.1951,-0.12809 -0.08404,-0.25851c0.19277,-0.22596 0.37447,-0.36553 0.73532,-0.36553l2.70659,-0.00043c0.42681,0.0834 0.52171,0.27489 0.57979,0.70447l0.00256,3.00702c-0.00447,0.16638 0.08319,0.65915 0.38191,0.76808c0.23894,0.07894 0.39745,-0.11276 0.54043,-0.26468c0.64851,-0.68829 1.11063,-1.50127 1.52489,-2.34234c0.18234,-0.37085 0.34042,-0.7551 0.49362,-1.13957c0.1134,-0.28447 0.29085,-0.42447 0.6117,-0.41936l2.60553,0.00276c0.0766,0 0.15511,0.00085 0.23106,0.01341c0.43873,0.07553 0.55894,0.26447 0.42341,0.69298c-0.21362,0.67297 -0.62958,1.23383 -1.03638,1.79595c-0.43469,0.60107 -0.89873,1.18234 -1.33022,1.78639c-0.39532,0.55404 -0.3634,0.83234 0.12766,1.31212zM1423.93617,415h-17.87234c-0.58766,0 -1.06383,0.47638 -1.06383,1.06383v17.87234c0,0.58745 0.47617,1.06383 1.06383,1.06383h17.87234c0.58766,0 1.06383,-0.47638 1.06383,-1.06383v-17.87234c0,-0.58745 -0.47617,-1.06383 -1.06383,-1.06383z"/>
    </symbol>
</svg>
