<?xml version="1.0" encoding="UTF-8"?>
<svg width="47px" height="50px" viewBox="0 0 47 50" version="1.1" xmlns="http://www.w3.org/2000/svg" xmlns:xlink="http://www.w3.org/1999/xlink">
    <!-- Generator: Sketch 53.2 (72643) - https://sketchapp.com -->
    <title>Lord</title>
    <desc>Created with Sketch.</desc>
    <g id="web" stroke="none" stroke-width="1" fill="none" fill-rule="evenodd">
        <g id="1-home" transform="translate(-255.000000, -24.000000)" fill="#FFFFFF" fill-rule="nonzero">
            <g id="Lord" transform="translate(255.000000, 24.000000)">
                <g id="Group-10">
                    <path d="M7.54320988,38.0772304 C3.04071266,35.5052379 0,30.6126059 0,25 C0,19.3873941 3.04071266,14.4947621 7.54320988,11.9227696 L7.54320988,38.0772304 Z M22.0493827,11.9227696 C26.5518799,14.4947621 29.5925926,19.3873941 29.5925926,25 C29.5925926,30.6126059 26.5518799,35.5052379 22.0493827,38.0772304 L22.0493827,11.9227696 Z" id="Oval-2"></path>
                    <path d="M14.8783435,16.5510436 L19.3095581,12.0588235 L14.7962963,7.48342671 L10.2830345,12.0588235 L14.7180022,16.5548484 L10.4850976,21.1103067 L14.6262708,45.575567 L19.5278151,21.1103067 L14.8783435,16.5510436 Z M2.4360793,0.415583127 L27.6928091,0.415583127 L27.6928091,3.03160525 C25.0833142,2.90991193 23.2311952,3.41284873 22.136452,4.54041564 C21.0782331,5.56912737 20.5891571,7.69253257 20.669224,10.9106312 L20.669224,32.4407053 C20.5794359,38.900832 20.7385877,42.6318571 21.1466795,43.6337806 C21.6922737,44.6415624 22.6885437,45.575567 24.9883237,46.2064518 C28.4388573,46.6656703 34.2156081,46.9498717 38.1619173,44.1559639 C40.7927901,42.2933588 42.7630683,38.9692729 44.0727519,34.1837063 L46.6411973,34.1837063 L46.4421183,49.512829 L8.35525274,49.512829 L2.4360793,49.5132123 L2.4360793,46.889799 C4.26845147,46.8044495 5.46211772,46.6521308 6.01707804,46.432843 C7.88615663,45.6942924 8.19226403,44.7386109 8.53383263,44.1559639 C9.37069954,41.707113 9.12827089,38.8213333 9.12827089,34.2934266 C9.12827089,29.7655199 9.21011434,17.5599713 9.12827089,14.6041677 C9.39094249,10 8.77115113,6.08049789 8.35525274,5.40096092 C7.32989812,3.72563256 5.35684031,2.93584733 2.4360793,3.03160525 L2.4360793,0.415583127 Z" id="Rectangle-2"></path>
                </g>
            </g>
        </g>
    </g>
</svg>