<?xml version="1.0" encoding="UTF-8"?>
<svg width="133px" height="37px" viewBox="0 0 133 37" version="1.1" xmlns="http://www.w3.org/2000/svg" xmlns:xlink="http://www.w3.org/1999/xlink">
    <!-- Generator: Sketch 53.2 (72643) - https://sketchapp.com -->
    <title>logo</title>
    <desc>Created with Sketch.</desc>
    <g id="web" stroke="none" stroke-width="1" fill="none" fill-rule="evenodd">
        <g id="1-home" transform="translate(-258.000000, -248.000000)" fill="#FFFFFF" fill-rule="nonzero">
            <g id="about" transform="translate(258.000000, 248.000000)">
                <g id="logo">
                    <path d="M92.6,0.524667077 C93.1306781,0.495069532 93.6491709,0.475146699 94.1554784,0.464898579 C96.2111547,0.38965715 99.1360129,0.287694558 100.20423,0.25011153 C102.103167,0.183301313 104.233536,0.136007328 106.595337,0.108229575 C111.323597,0.0526192911 116.379187,0.25011153 120.331897,1.59563661 C122.633513,2.41715796 124.779074,3.65853099 126.91873,5.47003946 C129.242256,7.89192914 129.582198,8.66128483 130.534667,10.6688435 C131.958694,13.6703264 132.105645,16.3529451 132.189038,18.6234237 C132.328383,22.4172764 131.139292,26.0175968 128.621767,29.4243848 C126.882425,31.7286289 124.32736,33.5264034 120.956571,34.8177083 C120.160103,35.1696048 118.847158,35.4689014 117.045632,35.6777158 C115.619662,35.8429995 112.776949,35.9837609 108.517493,36.1 L103.572232,36.1 L103.572232,33.0642762 C103.372214,33.0642762 103.174559,33.0642762 102.979266,33.0642762 C101.989325,33.0877899 101.216828,32.8677009 100.491657,32.4455574 C99.6536877,31.9112594 98.6701002,30.8211973 97.5408947,29.175371 L97.5408947,26.3451439 L97.5408947,15.5119155 L97.5408947,7.36647877 C97.5408947,5.46856539 97.2154901,4.11240986 96.5646807,3.29801218 C96.0320866,2.6052476 94.9581246,2.15862283 93.3427947,1.95813787 L92.6,1.39416873 L92.6,0.524667077 Z M105.75553,1.80794241 L105.75553,28.8744737 C105.772584,29.6219559 105.793627,30.146359 105.818659,30.447683 C105.818659,32.1806606 106.6847,33.5442139 108.40699,34.1122305 C109.674106,34.5748476 112.587863,34.8186825 115.533229,33.7678906 C116.898371,33.2419606 118.106178,32.3901437 119.15665,31.21244 C120.998636,29.1026187 122.112088,25.8201933 122.497007,21.3651637 C122.597798,18.1690617 122.774105,14.0976743 121.209863,9.81688745 C120.626364,8.22005316 119.548225,6.59714137 117.975445,4.94815211 C117.200089,4.27737737 116.420824,3.74949341 115.63765,3.36450023 C114.462889,2.78701045 113.493474,2.56422715 112.684877,2.36716509 C111.025853,1.91723527 108.716071,1.73082771 105.75553,1.80794241 Z" id="Rectangle-4"></path>
                    <path d="M62,1.06987445 C69.6454998,1.06987445 75.4015823,1.05056224 79.2682475,1.01193783 C85.0682454,0.954001209 90.7006593,0.915869217 93.8613975,5.78442858 C94.9346798,7.38229242 96.5083379,12.3151754 92.9121507,15.9644955 C91.6833803,17.2400614 89.5278531,18.3177009 86.445569,19.1974138 C86.7205122,19.3625727 87.3275619,19.7523163 88.2667181,20.3666446 C88.9334394,20.9175651 89.4326986,21.4614707 89.8993279,22.0242712 C91.0416311,23.4020001 92.7756709,26.0323446 94.0501669,28.0224144 C94.8807553,29.319342 96.2820825,31.6425132 98.3592028,33.959255 C98.9304449,34.4833839 99.4411195,34.847105 100.251399,35.2074035 C100.777808,35.4087521 101.227342,35.5303886 101.6,35.5723129 L101.6,37 L91.2131907,37 C89.9665872,35.1413882 89.0582428,33.7329752 88.4881576,32.7747609 C86.8357847,29.9974091 85.4270111,27.2695883 84.6289387,25.8788257 C82.9753803,22.8128986 81.5270527,21.2288104 80.2926581,20.7710252 C78.6841852,20.5014381 77.0003386,20.3666446 75.2411183,20.3666446 L75.2411183,25.5628589 C75.2392206,26.9346831 75.2392206,27.9127717 75.2411183,28.4971248 C75.2479966,30.6151254 75.1668605,31.9740939 75.60768,33.0256272 C76.1107018,34.7797942 77.7002751,35.6568777 80.3763999,35.6568777 L80.3763999,37 L62,37 L62,35.6393433 C64.041681,35.6393433 65.4375438,35.1924323 66.1875884,34.2986102 C66.9376331,33.4047881 67.2822117,31.5984968 67.2213243,28.8797364 C68.7535769,26.0981613 69.5197032,22.920739 69.5197032,19.3474694 C69.5197032,15.7741999 68.7535769,12.4850067 67.2213243,9.47988992 C67.2998632,6.52544463 66.9552846,4.64839533 66.1875884,3.84874204 C65.4407872,2.92355365 64.0449244,2.46095946 62,2.46095946 L62,1.06987445 Z M75.1926345,2.82639097 L75.1926345,18.7342912 C76.481161,18.7478657 77.4092873,18.7478657 77.9770133,18.7342912 C81.1136817,18.6592922 83.2144508,18.1499086 84.2807202,17.1163458 C85.8128982,15.7760947 86.6435162,13.6664104 86.6435162,10.7803411 C86.6435162,7.8942717 86.2204611,5.86756256 84.2807202,4.31378595 C83.1976179,3.46021604 81.3985351,2.96766366 78.7972564,2.82639097 C78.0899838,2.78797975 76.8884432,2.78797975 75.1926345,2.82639097 Z" id="-g-Rectangle-2"></path>
                    <path d="M0.8,1 L19.0474919,1 L19.0474919,2.37662547 C17.1081475,2.37662547 15.7529371,2.79557538 14.9818606,3.6334752 C14.118515,4.40710826 13.7398433,6.55121398 13.8458454,10.0657924 L13.8458454,25.053404 C13.7836741,29.5504563 13.8938744,32.1477142 14.1764465,32.8451777 C14.5542283,33.5467192 14.9818606,34.3657572 16.859214,35.001361 C19.367705,35.509934 24.3334402,35.8818778 27.5945447,33.3214152 C29.6914585,31.5409179 31.0786895,29.1594116 31.7562379,26.1768963 L33.2,26.1768963 L33.0540161,37 L5.31642361,37 L0.8,37 L0.8,35.6317435 C2.11741894,35.5746089 3.06034426,35.401285 3.62877595,35.1117718 C5.04315267,34.4375888 5.16510591,33.6142771 5.4016158,33.2086823 C5.95228683,31.5550306 5.82331323,29.4982098 5.82331323,26.3339651 C5.82331323,24.2244687 5.82331323,19.6563041 5.82331323,12.6294715 C5.85693889,8.61650139 5.79985049,6.35609687 5.65204801,5.84825796 C5.47525375,5.09768107 5.31937117,3.82566761 3.96848545,3.06219429 C3.39059042,2.67223729 2.3344286,2.44371436 0.8,2.37662547 L0.8,1 Z" id="Rectangle-2"></path>
                    <path d="M30.969974,8.18723836 C32.9780141,5.45000282 37.4775705,0.1 48.0046896,0.1 C56.5824098,0.1 60.9571952,2.87588238 64.8356289,7.76688368 C67.4430366,12.0035713 67.9502373,13.605724 68.2917722,17.7579204 C68.4018732,21.9193242 67.4069775,25.5797808 65.3070852,28.7392901 C63.6293794,31.0483552 61.8687046,32.7767427 60.0250608,33.9244525 C58.6421913,34.7853199 56.7085144,35.7304282 54.1163742,36.360244 C51.5242339,36.9900598 49.7011394,37 48.201988,37 C44.8932964,37 42.73667,36.64759 40.4259728,35.8743752 C39.674386,35.6228762 38.8772677,35.3079439 38.1049332,34.9632006 C37.2497382,34.6061536 36.1772487,34.0051242 34.8874647,33.1601124 L34.9504362,23.9019203 L30.5037003,23.9019203 L29.6733659,26.7189144 C29.6165584,26.6069045 29.5744012,26.5226954 29.5468944,26.466287 C28.1946392,23.693217 27.8,20.4958135 27.8,17.7579204 C27.8,14.364488 29.1964783,11.1793172 30.969974,8.18723836 Z M48.0873121,35.0855079 C50.9151524,35.0855079 54.1951248,34.1875581 56.4356104,30.2125222 C57.9195181,27.5797955 58.4255113,23.2253679 58.4255113,19.7333022 C58.4255113,14.2017786 57.8462567,9.27911043 55.8864024,6.1207099 C53.4072811,2.12548518 49.6746226,1.98423233 47.7240232,1.98423233 C44.9205648,1.98423233 41.7434518,3.27942082 40.1285529,6.1207099 C38.5466867,8.79880003 37.5709289,12.5689811 37.7762805,19.7333022 C37.8930073,23.8056762 38.3558919,27.4590578 39.7871921,30.2125222 C39.9513838,30.5511155 41.0463726,32.6808053 43.1441923,33.8982406 C45.0607612,35.018061 46.9335587,35.0855079 48.0873121,35.0855079 Z" id="Rectangle-3"></path>
                </g>
            </g>
        </g>
    </g>
</svg>