<svg xmlns="http://www.w3.org/2000/svg" xmlns:xlink="http://www.w3.org/1999/xlink" width="498" height="36" viewBox="0 0 498 36"><defs><path id="pwp5a" d="M475 768.5a.5.5 0 0 1 1 0v13a.5.5 0 0 1-1 0zm5.01-4a.5.5 0 0 1 1 0v22a.5.5 0 0 1-1 0zm125.25 1a.5.5 0 0 1 1 0v19a.5.5 0 0 1-1 0zm-5.01-1a.5.5 0 0 1 1 0v22a.5.5 0 0 1-1 0zm-6.01-3a.5.5 0 0 1 1 0v27a.5.5 0 0 1-1 0zm-5.01 2a.5.5 0 0 1 1 0v24a.5.5 0 0 1-1 0zm-5.01-4a.5.5 0 0 1 1 0v32a.5.5 0 0 1-1 0zm-7.02-2a.5.5 0 0 1 1 0v35a.5.5 0 0 1-1 0zm-5.01 6a.5.5 0 0 1 1 0v24a.5.5 0 0 1-1 0zm-5.01-4a.5.5 0 0 1 1 0v30a.5.5 0 0 1-1 0zm-5.01 10a.5.5 0 0 1 1 0v11a.5.5 0 0 1-1 0zm-5.01-2a.5.5 0 0 1 1 0v14a.5.5 0 0 1-1 0zm-5.01 0a.5.5 0 0 1 1 0v16a.5.5 0 0 1-1 0zm-5.01 5a.5.5 0 0 1 1 0v5a.5.5 0 0 1-1 0zm-5.01-3a.5.5 0 0 1 1 0v11a.5.5 0 0 1-1 0zm-5.01-1a.5.5 0 0 1 1 0v13a.5.5 0 0 1-1 0zm-6.01 5a.5.5 0 0 1 1 0v4a.5.5 0 0 1-1 0zm-5.01-4a.5.5 0 0 1 1 0v11a.5.5 0 0 1-1 0zm-5.01 3a.5.5 0 0 1 1 0v5a.5.5 0 0 1-1 0zm-5.01 1a.5.5 0 0 1 1 0v3a.5.5 0 0 1-1 0zm-5.01-2a.5.5 0 0 1 1 0v8a.5.5 0 0 1-1 0zm-5.01-3a.5.5 0 0 1 1 0v13a.5.5 0 0 1-1 0zm-5.01 1a.5.5 0 0 1 1 0v11a.5.5 0 0 1-1 0zm-5.01 2a.5.5 0 0 1 1 0v8a.5.5 0 0 1-1 0zm-5.01-7a.5.5 0 0 1 1 0v22a.5.5 0 0 1-1 0zm-6.01 3a.5.5 0 0 1 1 0v16a.5.5 0 0 1-1 0zm255.51 14a.5.5 0 0 1-1 0v-13a.5.5 0 0 1 1 0zm-5.01 5a.5.5 0 0 1-1 0v-22a.5.5 0 0 1 1 0zm-124.25-2a.5.5 0 0 1-1 0v-19a.5.5 0 0 1 1 0zm5.01 2a.5.5 0 0 1-1 0v-22a.5.5 0 0 1 1 0zm5.01 2a.5.5 0 0 1-1 0v-27a.5.5 0 0 1 1 0zm5.01-1a.5.5 0 0 1-1 0v-24a.5.5 0 0 1 1 0zm5.01 4a.5.5 0 0 1-1 0v-32a.5.5 0 0 1 1 0zm5.01 1a.5.5 0 0 1-1 0v-35a.5.5 0 0 1 1 0zm5.01-5a.5.5 0 0 1-1 0v-24a.5.5 0 0 1 1 0zm6.01 2a.5.5 0 0 1-1 0v-30a.5.5 0 0 1 1 0zm5.01-9a.5.5 0 0 1-1 0v-11a.5.5 0 0 1 1 0zm5.01 1a.5.5 0 0 1-1 0v-14a.5.5 0 0 1 1 0zm5.01 2a.5.5 0 0 1-1 0v-16a.5.5 0 0 1 1 0zm5.01-6a.5.5 0 0 1-1 0v-5a.5.5 0 0 1 1 0zm5.01 3a.5.5 0 0 1-1 0v-11a.5.5 0 0 1 1 0zm5.01 1a.5.5 0 0 1-1 0v-13a.5.5 0 0 1 1 0zm5.01-4a.5.5 0 0 1-1 0v-4a.5.5 0 0 1 1 0zm5.01 3a.5.5 0 0 1-1 0v-11a.5.5 0 0 1 1 0zm5.01-3a.5.5 0 0 1-1 0v-5a.5.5 0 0 1 1 0zm6.01-1a.5.5 0 0 1-1 0v-3a.5.5 0 0 1 1 0zm5.01 3a.5.5 0 0 1-1 0v-8a.5.5 0 0 1 1 0zm5.01 2a.5.5 0 0 1-1 0v-13a.5.5 0 0 1 1 0zm5.01-1a.5.5 0 0 1-1 0v-11a.5.5 0 0 1 1 0zm5.01-1a.5.5 0 0 1-1 0v-8a.5.5 0 0 1 1 0zm7.02 7a.5.5 0 0 1-1 0v-22a.5.5 0 0 1 1 0zm5.01-3a.5.5 0 0 1-1 0v-16a.5.5 0 0 1 1 0zm111.22-15a.5.5 0 0 1 1 0v13a.5.5 0 0 1-1 0zm5.01-4a.5.5 0 0 1 1 0v22a.5.5 0 0 1-1 0zm125.25 1a.5.5 0 0 1 1 0v19a.5.5 0 0 1-1 0zm-5.01-1a.5.5 0 0 1 1 0v22a.5.5 0 0 1-1 0zm-5.01-3a.5.5 0 0 1 1 0v27a.5.5 0 0 1-1 0zm-6.01 2a.5.5 0 0 1 1 0v24a.5.5 0 0 1-1 0zm-5.01-4a.5.5 0 0 1 1 0v32a.5.5 0 0 1-1 0zm-5.01-2a.5.5 0 0 1 1 0v35a.5.5 0 0 1-1 0zm-5.01 6a.5.5 0 0 1 1 0v24a.5.5 0 0 1-1 0zm-5.01-4a.5.5 0 0 1 1 0v30a.5.5 0 0 1-1 0zm-5.01 10a.5.5 0 0 1 1 0v11a.5.5 0 0 1-1 0zm-5.01-2a.5.5 0 0 1 1 0v14a.5.5 0 0 1-1 0zm-5.01 0a.5.5 0 0 1 1 0v16a.5.5 0 0 1-1 0zm-5.01 5a.5.5 0 0 1 1 0v5a.5.5 0 0 1-1 0zm-6.01-3a.5.5 0 0 1 1 0v11a.5.5 0 0 1-1 0zm-5.01-1a.5.5 0 0 1 1 0v13a.5.5 0 0 1-1 0zm-5.01 5a.5.5 0 0 1 1 0v4a.5.5 0 0 1-1 0zm-5.01-4a.5.5 0 0 1 1 0v11a.5.5 0 0 1-1 0zm-5.01 3a.5.5 0 0 1 1 0v5a.5.5 0 0 1-1 0zm-5.01 1a.5.5 0 0 1 1 0v3a.5.5 0 0 1-1 0zm-5.01-2a.5.5 0 0 1 1 0v8a.5.5 0 0 1-1 0zm-5.01-3a.5.5 0 0 1 1 0v13a.5.5 0 0 1-1 0zm-5.01 1a.5.5 0 0 1 1 0v11a.5.5 0 0 1-1 0zm-7.01 2a.5.5 0 0 1 1 0v8a.5.5 0 0 1-1 0zm-5.01-7a.5.5 0 0 1 1 0v22a.5.5 0 0 1-1 0zm-5.01 3a.5.5 0 0 1 1 0v16a.5.5 0 0 1-1 0zm-87.18 2a.5.5 0 0 1 1 0v11a.5.5 0 0 1-1 0zm72.14 8a.5.5 0 0 1-1 0v-5a.5.5 0 0 1 1 0zm-6.01-6a.5.5 0 0 1 1 0v8a.5.5 0 0 1-1 0zm-5.01-3a.5.5 0 0 1 1 0v13a.5.5 0 0 1-1 0zm-5.01-3a.5.5 0 0 1 1 0v19a.5.5 0 0 1-1 0zm-5.01-2a.5.5 0 0 1 1 0v24a.5.5 0 0 1-1 0zm-5.01 5a.5.5 0 0 1 1 0v13a.5.5 0 0 1-1 0zm-5.01 3a.5.5 0 0 1 1 0v8a.5.5 0 0 1-1 0zm-6.01 2a.5.5 0 0 1 1 0v3a.5.5 0 0 1-1 0zm-5.01 1a.5.5 0 0 1 1 0v1a.5.5 0 0 1-1 0zm-4.51.5a.5.5 0 1 1 0 1 .5.5 0 0 1 0-1zm-5.51-.5a.5.5 0 0 1 1 0v1a.5.5 0 0 1-1 0zm-5.01-1a.5.5 0 0 1 1 0v3a.5.5 0 0 1-1 0zm-5.01-1a.5.5 0 0 1 1 0v5a.5.5 0 0 1-1 0zm-5.01-4a.5.5 0 0 1 1 0v13a.5.5 0 0 1-1 0zm-10.02 4a.5.5 0 0 1 1 0v5a.5.5 0 0 1-1 0zm-5.01 1a.5.5 0 0 1 1 0v3a.5.5 0 0 1-1 0zm-6.01-4a.5.5 0 0 1 1 0v11a.5.5 0 0 1-1 0zm-5.01 2a.5.5 0 0 1 1 0v8a.5.5 0 0 1-1 0z"/></defs><g><g transform="translate(-475 -757)"><use fill="#fecc74" xlink:href="#pwp5a"/></g></g></svg>