<?xml version="1.0" encoding="UTF-8"?><!DOCTYPE svg PUBLIC "-//W3C//DTD SVG 1.1//EN" "http://www.w3.org/Graphics/SVG/1.1/DTD/svg11.dtd"><svg xmlns="http://www.w3.org/2000/svg"><symbol id="apple" viewBox="0 0 20 20"><path d="M1419.96 320.344V321.906c0 .862-.7 1.563-1.562 1.563h-.976c-.862 0-1.563-.701-1.563-1.563 0-.861.701-1.562 1.563-1.562h1.367v-5.75l-5.625.97v7.514c0 .862-.7 1.563-1.562 1.563h-.977c-.862 0-1.563-.701-1.563-1.563 0-.861.701-1.562 1.563-1.562h1.367v-8.892l7.969-1.374zm.938-12.344h-11.796a4.106 4.106 0 0 0-4.102 4.102v11.796a4.106 4.106 0 0 0 4.102 4.102h11.796a4.106 4.106 0 0 0 4.102-4.102v-11.796a4.106 4.106 0 0 0-4.102-4.102z" transform="translate(-1405 -308)"/></symbol><symbol id="instagram" viewBox="0 0 20 20"><path d="M1423 349.5c0 .3-.2.5-.5.5h-2c-.3 0-.5-.2-.5-.5v-2c0-.3.2-.5.5-.5h2c.3 0 .5.2.5.5zm-15.5 13.5c-.3 0-.5-.2-.5-.5V354h2.1c-.1.3-.1.7-.1 1 0 3.3 2.7 6 6 6s6-2.7 6-6c0-.3 0-.7-.1-1h2.1v8.5c0 .3-.2.5-.5.5zm7.5-12c2.2 0 4 1.8 4 4s-1.8 4-4 4-4-1.8-4-4 1.8-4 4-4zm8-6h-16c-1.1 0-2 .9-2 2v16c0 1.1.9 2 2 2h16c1.1 0 2-.9 2-2v-16c0-1.1-.9-2-2-2z" transform="translate(-1405 -345)"/></symbol><symbol id="facebook" viewBox="0 0 20 20"><path d="M1422 382v3h-2c-.6 0-1 .4-1 1v2h3v3h-3v7h-3v-7h-2v-3h2v-2.5c0-1.9 1.6-3.5 3.5-3.5zm1-2h-16c-1.1 0-2 .9-2 2v16c0 1.1.9 2 2 2h16c1.1 0 2-.9 2-2v-16c0-1.1-.9-2-2-2z" transform="translate(-1405 -380)"/></symbol><symbol id="vk" viewBox="0 0 20 20"><path transform="translate(-1405 -415)" d="M1420.93 426.264c.545.532 1.121 1.033 1.61 1.621.217.26.421.528.577.83.222.43.022.903-.364.929l-2.395-.001c-.619.05-1.111-.198-1.526-.62-.331-.338-.639-.698-.958-1.046a2.257 2.257 0 0 0-.43-.385c-.327-.212-.61-.147-.798.194-.19.347-.235.731-.252 1.118-.027.565-.197.712-.764.738-1.21.057-2.36-.126-3.427-.736-.942-.539-1.67-1.3-2.306-2.16-1.237-1.676-2.185-3.517-3.036-5.411-.192-.427-.051-.655.419-.664a65.29 65.29 0 0 1 2.345 0c.318.004.528.186.65.486.423 1.04.941 2.029 1.59 2.946.173.244.35.487.6.66.278.19.49.128.62-.182.084-.197.12-.407.138-.618.062-.723.07-1.445-.038-2.165-.067-.45-.32-.741-.77-.826-.228-.044-.194-.128-.083-.259.192-.226.374-.365.735-.365h2.707c.426.083.521.274.58.704l.002 3.007c-.005.166.083.659.382.768.239.079.397-.113.54-.265.649-.688 1.11-1.501 1.525-2.342.183-.371.34-.755.494-1.14.113-.284.29-.424.612-.42l2.605.004c.077 0 .155 0 .231.013.439.076.559.264.424.693-.214.673-.63 1.234-1.037 1.796-.435.601-.899 1.182-1.33 1.786-.395.554-.363.833.128 1.312zm3.006-11.264h-17.872c-.588 0-1.064.476-1.064 1.064v17.872c0 .588.476 1.064 1.064 1.064h17.872c.588 0 1.064-.476 1.064-1.064v-17.872c0-.588-.476-1.064-1.064-1.064z"/></symbol></svg>