<svg width="47" height="50" viewBox="0 0 47 50" xmlns="http://www.w3.org/2000/svg"><g fill="#FFF" fill-rule="nonzero"><path d="M7.543 38.077A15.03 15.03 0 0 1 0 25a15.03 15.03 0 0 1 7.543-13.077v26.154zM22.05 11.923A15.03 15.03 0 0 1 29.593 25a15.03 15.03 0 0 1-7.544 13.077V11.923z"/><path d="M14.878 16.551l4.432-4.492-4.514-4.576-4.513 4.576 4.435 4.496-4.233 4.555 4.141 24.466 4.902-24.466-4.65-4.559zM2.436.416h25.257v2.616c-2.61-.122-4.462.38-5.557 1.508-1.058 1.03-1.547 3.153-1.467 6.37v21.53c-.09 6.46.07 10.192.478 11.194.545 1.008 1.542 1.942 3.841 2.572 3.45.46 9.228.744 13.174-2.05 2.63-1.863 4.601-5.187 5.91-9.972h2.57l-.2 15.329H2.436V46.89c1.832-.086 3.026-.238 3.581-.457 1.87-.739 2.175-1.694 2.517-2.277.837-2.449.594-5.335.594-9.863 0-4.527.082-16.733 0-19.689.263-4.604-.357-8.524-.773-9.203-1.025-1.675-2.998-2.465-5.919-2.37V.417z"/></g></svg>