<svg width="133" height="37" viewBox="0 0 133 37" xmlns="http://www.w3.org/2000/svg"><g fill="#FFF" fill-rule="nonzero"><path d="M92.6.525c.53-.03 1.05-.05 1.555-.06 2.056-.075 4.981-.177 6.05-.215 1.898-.067 4.029-.114 6.39-.142 4.729-.055 9.784.142 13.737 1.488 2.302.821 4.447 2.063 6.587 3.874 2.323 2.422 2.663 3.191 3.616 5.199 1.424 3.001 1.57 5.684 1.654 7.954.14 3.794-1.05 7.395-3.567 10.801-1.74 2.305-4.295 4.102-7.665 5.394-.797.352-2.11.65-3.911.86-1.426.165-4.27.306-8.529.422h-4.945v-3.036h-.593c-.99.024-1.762-.196-2.487-.618-.838-.535-1.822-1.625-2.951-3.27V7.365c0-1.897-.326-3.254-.976-4.068-.533-.693-1.607-1.14-3.222-1.34l-.743-.564v-.87zm13.156 1.283v27.066c.017.748.038 1.272.063 1.574 0 1.733.866 3.096 2.588 3.664 1.267.463 4.18.707 7.126-.344 1.365-.526 2.573-1.378 3.624-2.556 1.842-2.11 2.955-5.392 3.34-9.847.1-3.196.277-7.267-1.287-11.548-.584-1.597-1.662-3.22-3.235-4.869-.775-.67-1.554-1.199-2.337-1.583-1.175-.578-2.145-.8-2.953-.998-1.66-.45-3.969-.636-6.93-.56z"/><path d="M62 1.07c7.645 0 13.402-.02 17.268-.058 5.8-.058 11.433-.096 14.593 4.772 1.074 1.598 2.647 6.531-.949 10.18-1.229 1.276-3.384 2.354-6.466 3.233.275.166.882.555 1.82 1.17.667.55 1.167 1.094 1.633 1.657 1.143 1.378 2.877 4.008 4.151 5.998.83 1.297 2.232 3.62 4.31 5.937a6.424 6.424 0 0 0 1.891 1.248c.527.202.976.323 1.349.365V37H91.213c-1.246-1.859-2.155-3.267-2.725-4.225-1.652-2.778-3.061-5.505-3.86-6.896-1.653-3.066-3.1-4.65-4.335-5.108a30.533 30.533 0 0 0-5.052-.404v5.196c-.002 1.372-.002 2.35 0 2.934.007 2.118-.074 3.477.367 4.529.503 1.754 2.092 2.63 4.768 2.63V37H62v-1.36c2.042 0 3.438-.448 4.188-1.341.75-.894 1.094-2.7 1.033-5.42 1.533-2.78 2.299-5.958 2.299-9.532 0-3.573-.766-6.862-2.299-9.867.079-2.955-.266-4.832-1.033-5.631C65.44 2.924 64.045 2.46 62 2.46V1.07zm13.193 1.756v15.908c1.288.014 2.216.014 2.784 0 3.137-.075 5.237-.584 6.304-1.618 1.532-1.34 2.363-3.45 2.363-6.336s-.424-4.912-2.363-6.466c-1.083-.854-2.882-1.346-5.484-1.488-.707-.038-1.909-.038-3.604 0zM.8 1h18.247v1.377c-1.939 0-3.294.419-4.065 1.256-.863.774-1.242 2.918-1.136 6.433v14.987c-.062 4.497.048 7.095.33 7.792.378.702.806 1.52 2.683 2.156 2.509.509 7.474.88 10.736-1.68 2.096-1.78 3.484-4.162 4.161-7.144H33.2L33.054 37H.8v-1.368c1.317-.057 2.26-.23 2.829-.52 1.414-.674 1.536-1.498 1.773-1.903.55-1.654.421-3.71.421-6.875V12.629c.034-4.012-.023-6.273-.171-6.78-.177-.751-.333-2.023-1.684-2.787-.577-.39-1.634-.618-3.168-.685V1z"/><path d="M30.97 8.187C32.978 5.45 37.478.1 48.005.1c8.577 0 12.952 2.776 16.83 7.667 2.608 4.237 3.115 5.839 3.457 9.99.11 4.162-.885 7.823-2.985 10.982-1.678 2.31-3.438 4.038-5.282 5.185-1.383.861-3.316 1.806-5.909 2.436-2.592.63-4.415.64-5.914.64-3.309 0-5.465-.352-7.776-1.126a26.171 26.171 0 0 1-2.321-.91c-.855-.358-1.928-.959-3.218-1.804l.063-9.258h-4.446l-.83 2.817a19.741 19.741 0 0 1-.127-.253c-1.352-2.773-1.747-5.97-1.747-8.708 0-3.394 1.396-6.579 3.17-9.57zm17.117 26.899c2.828 0 6.108-.898 8.349-4.873 1.484-2.633 1.99-6.988 1.99-10.48 0-5.531-.58-10.454-2.54-13.612-2.479-3.996-6.211-4.137-8.162-4.137-2.803 0-5.98 1.295-7.595 4.137-1.582 2.678-2.558 6.448-2.353 13.612.117 4.073.58 7.726 2.011 10.48.164.338 1.26 2.468 3.357 3.685 1.917 1.12 3.79 1.188 4.943 1.188z"/></g></svg>